<svg width="108" height="106" viewBox="0 0 108 106" fill="none" xmlns="http://www.w3.org/2000/svg">
<path d="M104.778 38.8329V38.2759V6.62707C104.778 5.90028 104.487 4.43906 103.657 3.18644C102.859 1.9819 101.593 1 99.5556 1C98.4107 1 97.2658 1.40679 96.3196 2.21407L96.319 2.2146L79.7854 16.2989L79.7851 16.2992C71.3047 23.5167 60.6504 27.5 49.7778 27.5H12.4444C6.18128 27.5 1 32.9237 1 39.75V59.625C1 66.4513 6.18128 71.875 12.4444 71.875H18.9972H20.1295L19.9896 72.9986C19.7238 75.1318 19.5733 77.2973 19.5733 79.5C19.5733 87.5866 21.3415 95.2257 24.4533 102.053C25.2929 103.895 27.1301 105 29.0656 105H43.5089C47.6936 105 50.3677 99.7973 47.7318 96.1145C44.4232 91.4919 42.4603 85.7322 42.4603 79.5C42.4603 77.1078 42.788 74.813 43.3492 72.6264L43.542 71.875H44.3178H49.7778C60.6504 71.875 71.3048 75.8583 79.7832 83.0759L79.7835 83.0761L96.3171 97.1604L96.3172 97.1605C97.2443 97.9504 98.3862 98.3739 99.5545 98.375L104.778 38.8329ZM104.778 38.8329L105.251 39.1261M104.778 38.8329L105.251 39.1261M105.251 39.1261C108.663 41.2389 111 45.1439 111 49.6875C111 54.2309 108.663 58.1361 105.249 60.251L104.776 60.5443M105.251 39.1261L104.776 60.5443M104.776 60.5443V61.1011M104.776 60.5443V61.1011M104.776 61.1011V92.75C104.776 93.527 104.48 94.9852 103.651 96.2217M104.776 61.1011L103.651 96.2217M103.651 96.2217C102.855 97.4102 101.589 98.3747 99.5545 98.375L103.651 96.2217ZM92.6849 79.7271L94.3333 81.1312V78.9659V20.4091V18.2438L92.6849 19.6479L86.2585 25.1218C75.9344 33.9157 62.9736 38.75 49.7778 38.75H48.7778V39.75V59.625V60.625H49.7778C62.9736 60.625 75.9344 65.4593 86.2585 74.2532L92.6849 79.7271Z" stroke="#9B9B9B" stroke-width="2"/>
</svg>
