<svg width="192" height="203" viewBox="0 0 192 203" fill="none" xmlns="http://www.w3.org/2000/svg">
<path d="M72.075 110C72.075 117.48 66.2534 123.5 59.1 123.5C51.9466 123.5 46.125 117.48 46.125 110C46.125 102.52 51.9466 96.5 59.1 96.5C66.2534 96.5 72.075 102.52 72.075 110ZM59.1 130.5C62.1038 130.5 64.9223 129.749 67.4586 128.5H68.34C75.6979 128.5 81.7 134.708 81.7 142.4V146C81.7 149.055 79.3193 151.5 76.425 151.5H41.775C38.8807 151.5 36.5 149.055 36.5 146V142.4C36.5 134.708 42.5021 128.5 49.86 128.5H50.7419C53.2886 129.749 56.0954 130.5 59.1 130.5ZM104.8 112C104.8 118.367 99.8326 123.5 93.75 123.5C87.6674 123.5 82.7 118.367 82.7 112C82.7 105.633 87.6674 100.5 93.75 100.5C99.8326 100.5 104.8 105.633 104.8 112ZM93.75 129.5C95.6676 129.5 97.467 129.098 99.1543 128.5H99.525C106.678 128.5 112.5 134.52 112.5 142C112.5 145.055 110.119 147.5 107.225 147.5H86.5336C86.5429 147.406 86.55 147.305 86.55 147.2V142.4C86.55 137.67 84.8268 133.373 82.0495 130.058C83.8386 129.086 85.8334 128.5 87.975 128.5H88.3457C90.033 129.098 91.8324 129.5 93.75 129.5Z" stroke="#9B9B9B"/>
</svg>
